<?xml version="1.0" encoding="UTF-8"?>
<!DOCTYPE svg PUBLIC "-//W3C//DTD SVG 1.1//EN" "http://www.w3.org/Graphics/SVG/1.1/DTD/svg11.dtd">
<svg xmlns="http://www.w3.org/2000/svg" version="1.1" width="2174px" height="1050px" style="shape-rendering:geometricPrecision; text-rendering:geometricPrecision; image-rendering:optimizeQuality; fill-rule:evenodd; clip-rule:evenodd" xmlns:xlink="http://www.w3.org/1999/xlink">
<g><path style="opacity:0.841" fill="#e62443" d="M 277.5,-0.5 C 278.5,-0.5 279.5,-0.5 280.5,-0.5C 281.162,3.46591 281.495,7.46591 281.5,11.5C 305.295,13.3808 305.295,15.7141 281.5,18.5C 280.022,49.6431 277.689,49.9765 274.5,19.5C 249.564,15.2669 249.564,12.6003 274.5,11.5C 275.09,7.39666 276.09,3.39666 277.5,-0.5 Z"/></g>
<g><path style="opacity:0.971" fill="#3b3637" d="M 560.5,1049.5 C 558.833,1049.5 557.167,1049.5 555.5,1049.5C 525.159,1040.66 495.159,1030.5 465.5,1019C 448.299,1013.13 430.633,1009.63 412.5,1008.5C 396.95,1009.64 381.616,1012.14 366.5,1016C 340.818,1017.55 315.485,1015.22 290.5,1009C 274.13,1005.16 257.796,1001.16 241.5,997C 227.357,994.626 213.357,995.293 199.5,999C 182.158,1005.17 165.158,1012.17 148.5,1020C 142.668,1022.28 136.668,1023.94 130.5,1025C 116.802,1025.81 103.136,1025.48 89.5,1024C 71.8699,1021.01 54.3699,1017.51 37,1013.5C 22.8877,1015.14 10.3877,1020.48 -0.5,1029.5C -0.5,1028.5 -0.5,1027.5 -0.5,1026.5C 8.84558,1011.02 22.5122,1001.52 40.5,998C 50.121,996.509 59.7877,996.176 69.5,997C 83.1893,999.976 97.0227,1001.81 111,1002.5C 119.321,1002.64 127.487,1001.64 135.5,999.5C 137.542,969.833 139.708,940.166 142,910.5C 151.395,846.489 157.062,782.156 159,717.5C 160.909,701.299 163.576,685.299 167,669.5C 162.876,671.229 158.876,673.229 155,675.5C 151.243,668.319 147.743,660.986 144.5,653.5C 145.381,652.029 146.714,651.196 148.5,651C 159.431,648.393 170.264,645.559 181,642.5C 181.333,630.833 181.667,619.167 182,607.5C 188.165,559.685 191.832,511.685 193,463.5C 194.073,454.207 196.24,445.207 199.5,436.5C 200.768,438.304 201.435,440.304 201.5,442.5C 203.497,449.997 204.664,457.664 205,465.5C 205.683,485.182 205.35,504.849 204,524.5C 201.666,553.17 199.333,581.837 197,610.5C 195.418,621.672 191.918,632.172 186.5,642C 189.502,641.842 192.502,641.342 195.5,640.5C 196.167,640.5 196.5,640.167 196.5,639.5C 196.833,639.5 197.167,639.5 197.5,639.5C 232.533,633.097 267.866,629.93 303.5,630C 301.264,626.124 299.93,621.958 299.5,617.5C 297.814,610.936 296.647,604.269 296,597.5C 294.762,573.161 293.428,548.828 292,524.5C 291.333,499.167 291.333,473.833 292,448.5C 292.696,441.387 293.863,434.387 295.5,427.5C 289.705,426.17 283.538,425.504 277,425.5C 270.833,425.667 264.667,425.833 258.5,426C 227.023,429.255 195.523,432.089 164,434.5C 162.392,434.026 162.226,433.359 163.5,432.5C 170.927,427.914 178.927,424.914 187.5,423.5C 187.78,420.728 187.113,418.228 185.5,416C 180.971,415.321 176.471,415.487 172,416.5C 171.167,416.333 170.333,416.167 169.5,416C 187.229,407.734 205.895,402.901 225.5,401.5C 232.035,341.289 240.201,281.289 250,221.5C 255.575,180.568 260.575,139.568 265,98.5C 267.487,83.3965 270.487,68.3965 274,53.5C 276.667,46.8333 279.333,46.8333 282,53.5C 285.513,68.3965 288.513,83.3965 291,98.5C 299.278,175.11 309.611,251.444 322,327.5C 324.886,350.474 327.553,373.474 330,396.5C 330.839,397.624 332.006,398.291 333.5,398.5C 352.741,399.65 371.408,403.484 389.5,410C 389.833,410.333 390.167,410.667 390.5,411C 389.333,411.167 388.167,411.333 387,411.5C 383.138,410.451 379.305,410.451 375.5,411.5C 374.583,414.758 374.249,418.091 374.5,421.5C 383.361,422.843 391.695,425.676 399.5,430C 387.596,428.578 375.596,427.745 363.5,427.5C 365.7,439.403 367.2,451.403 368,463.5C 368.702,511.282 371.369,558.949 376,606.5C 376.717,617.855 376.551,629.189 375.5,640.5C 390.52,643.255 405.187,647.255 419.5,652.5C 415.983,660.197 412.483,667.864 409,675.5C 403.767,672.48 398.267,670.146 392.5,668.5C 396.412,685.305 399.245,702.305 401,719.5C 404.531,795.076 410.865,870.41 420,945.5C 421.099,958.812 421.599,972.145 421.5,985.5C 474.651,992.583 520.984,1013.92 560.5,1049.5 Z M 285.5,407.5 C 290.511,407.334 295.511,407.501 300.5,408C 302.229,409.789 302.896,411.956 302.5,414.5C 285.791,414.403 269.124,415.069 252.5,416.5C 252.682,414.409 252.348,412.409 251.5,410.5C 252.376,409.749 253.376,409.249 254.5,409C 265.008,408.83 275.341,408.33 285.5,407.5 Z M 308.5,407.5 C 328.428,408.465 348.428,409.132 368.5,409.5C 368.112,412.879 367.445,416.212 366.5,419.5C 347.704,415.731 328.704,414.064 309.5,414.5C 309.552,412.097 309.219,409.764 308.5,407.5 Z M 241.5,409.5 C 242.675,409.281 243.675,409.614 244.5,410.5C 245.348,412.409 245.682,414.409 245.5,416.5C 229.265,417.476 213.098,419.143 197,421.5C 193.957,420.263 192.79,417.93 193.5,414.5C 209.716,413.543 225.716,411.876 241.5,409.5 Z M 355.5,441.5 C 338.379,432.303 320.045,427.636 300.5,427.5C 300.389,426.883 300.056,426.383 299.5,426C 318.508,425.384 337.508,425.551 356.5,426.5C 356.084,431.493 355.751,436.493 355.5,441.5 Z M 299.5,617.5 C 299.93,621.958 301.264,626.124 303.5,630C 267.866,629.93 232.533,633.097 197.5,639.5C 229.941,625.561 263.941,618.227 299.5,617.5 Z M 310.5,617.5 C 316.181,617.635 321.848,617.968 327.5,618.5C 330.454,619.271 333.454,619.938 336.5,620.5C 337.167,620.5 337.833,620.5 338.5,620.5C 342.502,622.61 346.835,623.943 351.5,624.5C 357.755,627.296 363.755,630.629 369.5,634.5C 369.815,636.226 369.981,637.893 370,639.5C 350.422,635.203 330.589,632.537 310.5,631.5C 310.5,626.833 310.5,622.167 310.5,617.5 Z"/></g>
<g><path style="opacity:1" fill="#f7e771" d="M 326.5,398.5 C 293.056,396.596 259.723,397.429 226.5,401C 234.735,382.227 240.569,362.727 244,342.5C 253.815,275.96 262.649,209.293 270.5,142.5C 271.483,146.298 271.817,150.298 271.5,154.5C 270.595,217.165 270.428,279.831 271,342.5C 271.564,358.629 273.23,374.629 276,390.5C 276.333,390.167 276.667,389.833 277,389.5C 277.722,381.838 278.388,374.171 279,366.5C 279.067,283.821 280.067,201.154 282,118.5C 290.812,191.626 300.479,264.626 311,337.5C 315.075,358.132 320.241,378.465 326.5,398.5 Z"/></g>
<g><path style="opacity:1" fill="#aba059" d="M 271.5,154.5 C 271.817,150.298 271.483,146.298 270.5,142.5C 270.671,137.804 271.171,133.137 272,128.5C 272.824,137.343 272.657,146.01 271.5,154.5 Z"/></g>
<g><path style="opacity:0.959" fill="#211f1e" d="M 2051.5,423.5 C 2081.52,420.612 2109.85,426.112 2136.5,440C 2138.85,441.013 2140.51,442.679 2141.5,445C 2138.79,451.589 2135.95,458.089 2133,464.5C 2102.17,444.721 2069.34,440.221 2034.5,451C 2013.1,460.639 2005.26,476.805 2011,499.5C 2016.44,508.985 2024.27,515.818 2034.5,520C 2053.18,526.42 2072.18,531.753 2091.5,536C 2110.55,540.273 2127.05,549.106 2141,562.5C 2153.78,582.863 2154.78,603.863 2144,625.5C 2131.05,644.065 2113.22,654.898 2090.5,658C 2052.77,664.215 2017.77,657.215 1985.5,637C 1982.96,634.289 1980.29,631.789 1977.5,629.5C 1980.75,622.676 1984.25,616.009 1988,609.5C 2009.94,628.597 2035.6,638.264 2065,638.5C 2083.14,638.845 2099.64,634.011 2114.5,624C 2131.08,605.644 2130.41,587.978 2112.5,571C 2106.78,567.473 2100.78,564.473 2094.5,562C 2074.96,556.198 2055.29,550.865 2035.5,546C 2019.24,541.793 2005.41,533.626 1994,521.5C 1982.84,504.054 1980.5,485.388 1987,465.5C 1995.98,446.196 2010.81,433.696 2031.5,428C 2038.26,426.285 2044.93,424.785 2051.5,423.5 Z"/></g>
<g><path style="opacity:0.977" fill="#211f1e" d="M 658.5,425.5 C 693.502,425.333 728.502,425.5 763.5,426C 818.295,432.783 843.795,463.616 840,518.5C 834.066,550.77 815.233,571.27 783.5,580C 776.604,581.872 769.604,583.205 762.5,584C 736.169,584.5 709.835,584.667 683.5,584.5C 683.5,609.167 683.5,633.833 683.5,658.5C 675.167,658.5 666.833,658.5 658.5,658.5C 658.5,580.833 658.5,503.167 658.5,425.5 Z M 683.5,447.5 C 708.502,447.333 733.502,447.5 758.5,448C 802.63,453.741 820.797,478.574 813,522.5C 805.841,543.984 791.008,556.484 768.5,560C 763.53,560.886 758.53,561.552 753.5,562C 730.169,562.5 706.836,562.667 683.5,562.5C 683.5,524.167 683.5,485.833 683.5,447.5 Z"/></g>
<g><path style="opacity:0.97" fill="#211f1e" d="M 959.5,425.5 C 994.502,425.333 1029.5,425.5 1064.5,426C 1118.31,432.464 1143.81,462.63 1141,516.5C 1138.02,541.13 1125.85,559.63 1104.5,572C 1099.35,574.076 1094.35,576.41 1089.5,579C 1108.36,605.028 1127.03,631.194 1145.5,657.5C 1136.18,658.665 1126.85,658.832 1117.5,658C 1100.08,633.157 1082.41,608.49 1064.5,584C 1037.87,584.455 1011.2,584.622 984.5,584.5C 984.5,609.167 984.5,633.833 984.5,658.5C 976.167,658.5 967.833,658.5 959.5,658.5C 959.5,580.833 959.5,503.167 959.5,425.5 Z M 984.5,447.5 C 1009.5,447.333 1034.5,447.5 1059.5,448C 1104.94,454.71 1122.78,480.544 1113,525.5C 1107.59,539.912 1097.76,550.078 1083.5,556C 1075.44,559.098 1067.11,561.098 1058.5,562C 1033.84,562.5 1009.17,562.667 984.5,562.5C 984.5,524.167 984.5,485.833 984.5,447.5 Z"/></g>
<g><path style="opacity:0.959" fill="#211f1e" d="M 1333.5,425.5 C 1342.19,425.169 1350.86,425.502 1359.5,426.5C 1394.24,502.542 1429.07,578.542 1464,654.5C 1464.49,655.793 1464.66,657.127 1464.5,658.5C 1455.58,658.817 1446.75,658.484 1438,657.5C 1428.96,637.259 1419.8,617.092 1410.5,597C 1367.5,596.167 1324.5,596.333 1281.5,597.5C 1272.5,617.5 1263.5,637.5 1254.5,657.5C 1245.5,658.833 1236.5,658.833 1227.5,657.5C 1262.85,580.141 1298.18,502.807 1333.5,425.5 Z M 1345.5,453.5 C 1364.59,493.355 1382.92,533.689 1400.5,574.5C 1364.17,575.667 1327.84,575.833 1291.5,575C 1309.64,534.553 1327.64,494.053 1345.5,453.5 Z"/></g>
<g><path style="opacity:0.955" fill="#211f1e" d="M 1531.5,426.5 C 1541.32,425.342 1551.32,425.175 1561.5,426C 1584.7,456.9 1607.53,488.067 1630,519.5C 1652.96,488.422 1675.79,457.255 1698.5,426C 1707.85,425.168 1717.18,425.335 1726.5,426.5C 1698.91,463.257 1671.91,500.424 1645.5,538C 1673.3,576.416 1701.46,614.583 1730,652.5C 1731.56,654.217 1732.39,656.217 1732.5,658.5C 1722.83,658.666 1713.16,658.5 1703.5,658C 1678.79,624.078 1653.96,590.245 1629,556.5C 1604.69,590.307 1580.19,623.973 1555.5,657.5C 1545.5,658.833 1535.5,658.833 1525.5,657.5C 1554.83,617.833 1584.17,578.167 1613.5,538.5C 1586.5,500.844 1559.16,463.511 1531.5,426.5 Z"/></g>
<g><path style="opacity:0.949" fill="#211f1e" d="M 1833.5,425.5 C 1842.17,425.5 1850.83,425.5 1859.5,425.5C 1859.5,503.167 1859.5,580.833 1859.5,658.5C 1850.83,658.5 1842.17,658.5 1833.5,658.5C 1833.5,580.833 1833.5,503.167 1833.5,425.5 Z"/></g>
<g><path style="opacity:0.993" fill="#f9e871" d="M 295.5,427.5 C 293.863,434.387 292.696,441.387 292,448.5C 291.333,473.833 291.333,499.167 292,524.5C 293.428,548.828 294.762,573.161 296,597.5C 296.647,604.269 297.814,610.936 299.5,617.5C 263.941,618.227 229.941,625.561 197.5,639.5C 197.167,639.5 196.833,639.5 196.5,639.5C 195.833,639.5 195.5,639.833 195.5,640.5C 192.502,641.342 189.502,641.842 186.5,642C 191.918,632.172 195.418,621.672 197,610.5C 199.333,581.837 201.666,553.17 204,524.5C 205.35,504.849 205.683,485.182 205,465.5C 204.664,457.664 203.497,449.997 201.5,442.5C 232.045,432.743 263.379,427.743 295.5,427.5 Z"/></g>
<g><path style="opacity:0.994" fill="#f8e771" d="M 300.5,427.5 C 320.045,427.636 338.379,432.303 355.5,441.5C 355.882,485.204 357.382,528.871 360,572.5C 361.311,593.475 364.478,614.142 369.5,634.5C 363.755,630.629 357.755,627.296 351.5,624.5C 349.675,607.216 348.175,589.883 347,572.5C 346.286,569.405 345.286,566.405 344,563.5C 340.801,559.341 338.135,559.675 336,564.5C 335.175,583.247 336.008,601.913 338.5,620.5C 337.833,620.5 337.167,620.5 336.5,620.5C 335.569,604.816 334.402,589.149 333,573.5C 332.408,569.724 331.408,566.057 330,562.5C 327.671,557.739 325.005,557.405 322,561.5C 320.982,564.743 320.482,568.076 320.5,571.5C 321.735,586.823 322.735,602.156 323.5,617.5C 325.099,617.232 326.432,617.566 327.5,618.5C 321.848,617.968 316.181,617.635 310.5,617.5C 309.2,582.614 307.034,547.614 304,512.5C 303.667,490.5 303.333,468.5 303,446.5C 302.37,440.383 301.203,434.383 299.5,428.5C 299.624,427.893 299.957,427.56 300.5,427.5 Z"/></g>
<g><path style="opacity:1" fill="#e83145" d="M 240.5,482.5 C 249.062,481.722 256.729,483.889 263.5,489C 269.688,494.9 271.854,502.067 270,510.5C 263.326,528.417 250.492,536.584 231.5,535C 222.981,530.477 218.648,523.31 218.5,513.5C 218.761,497.927 226.095,487.593 240.5,482.5 Z"/></g>
<g><path style="opacity:1" fill="#e83246" d="M 320.5,488.5 C 331.96,488.453 339.793,493.787 344,504.5C 346.877,515.244 344.043,524.077 335.5,531C 327.807,534.269 321.64,532.435 317,525.5C 311.11,515.591 310.11,505.257 314,494.5C 316.063,492.266 318.229,490.266 320.5,488.5 Z"/></g>
<g><path style="opacity:1" fill="#f9e871" d="M 238.5,494.5 C 249.607,492.804 257.774,496.804 263,506.5C 265.04,514.578 262.54,520.745 255.5,525C 242.803,528.856 231.637,526.356 222,517.5C 219.6,511.764 220.267,506.431 224,501.5C 228.477,498.176 233.31,495.843 238.5,494.5 Z"/></g>
<g><path style="opacity:1" fill="#f9e671" d="M 321.5,498.5 C 336.413,499.239 342.58,506.906 340,521.5C 335.853,525.831 331.02,526.664 325.5,524C 316.539,521.575 312.373,515.742 313,506.5C 314.73,502.57 317.564,499.903 321.5,498.5 Z"/></g>
<g><path style="opacity:1" fill="#e83045" d="M 336.5,620.5 C 333.454,619.938 330.454,619.271 327.5,618.5C 326.432,617.566 325.099,617.232 323.5,617.5C 322.735,602.156 321.735,586.823 320.5,571.5C 320.482,568.076 320.982,564.743 322,561.5C 325.005,557.405 327.671,557.739 330,562.5C 331.408,566.057 332.408,569.724 333,573.5C 334.402,589.149 335.569,604.816 336.5,620.5 Z"/></g>
<g><path style="opacity:1" fill="#e72a44" d="M 255.5,559.5 C 261.167,559.5 266.833,559.5 272.5,559.5C 272.5,566.5 272.5,573.5 272.5,580.5C 265.167,580.833 257.833,581.167 250.5,581.5C 250.5,574.5 250.5,567.5 250.5,560.5C 252.415,560.784 254.081,560.451 255.5,559.5 Z"/></g>
<g><path style="opacity:0.994" fill="#e72d45" d="M 351.5,624.5 C 346.835,623.943 342.502,622.61 338.5,620.5C 336.008,601.913 335.175,583.247 336,564.5C 338.135,559.675 340.801,559.341 344,563.5C 345.286,566.405 346.286,569.405 347,572.5C 348.175,589.883 349.675,607.216 351.5,624.5 Z"/></g>
<g><path style="opacity:1" fill="#e72b45" d="M 226.5,561.5 C 230.833,561.5 235.167,561.5 239.5,561.5C 239.5,568.5 239.5,575.5 239.5,582.5C 232.209,583.392 224.876,583.726 217.5,583.5C 217.5,576.5 217.5,569.5 217.5,562.5C 220.713,562.81 223.713,562.477 226.5,561.5 Z"/></g>
<g><path style="opacity:1" fill="#e72a44" d="M 254.5,614.5 C 253.167,614.5 251.833,614.5 250.5,614.5C 250.5,607.5 250.5,600.5 250.5,593.5C 257.471,592.71 264.471,592.377 271.5,592.5C 271.5,599.833 271.5,607.167 271.5,614.5C 265.833,614.5 260.167,614.5 254.5,614.5 Z"/></g>
<g><path style="opacity:1" fill="#e72f45" d="M 230.5,594.5 C 233.167,594.5 235.833,594.5 238.5,594.5C 238.5,601.833 238.5,609.167 238.5,616.5C 231.155,616.629 223.822,616.962 216.5,617.5C 216.334,610.492 216.5,603.492 217,596.5C 221.601,595.858 226.101,595.191 230.5,594.5 Z"/></g>
<g><path style="opacity:1" fill="#f29a5f" d="M 250.5,593.5 C 250.5,600.5 250.5,607.5 250.5,614.5C 251.833,614.5 253.167,614.5 254.5,614.5C 253.081,615.451 251.415,615.784 249.5,615.5C 249.175,607.981 249.508,600.648 250.5,593.5 Z"/></g>
<g><path style="opacity:1" fill="#f9e971" d="M 265.5,979.5 C 264.846,961.735 264.179,944.069 263.5,926.5C 259.599,912.548 250.599,907.381 236.5,911C 230.939,913.562 227.106,917.728 225,923.5C 224.5,940.163 224.333,956.83 224.5,973.5C 213.689,973.351 203.022,974.518 192.5,977C 177.548,982.484 162.882,988.651 148.5,995.5C 148.167,995.167 147.833,994.833 147.5,994.5C 155.327,974.858 160.494,954.525 163,933.5C 167.066,889.177 171.066,844.844 175,800.5C 178.347,762.2 179.014,723.867 177,685.5C 176.097,679.242 174.93,673.075 173.5,667C 178.15,664.395 183.15,662.895 188.5,662.5C 188.5,664.5 188.5,666.5 188.5,668.5C 194.869,668.653 201.203,668.32 207.5,667.5C 207.211,663.894 207.544,660.394 208.5,657C 216.378,654.991 224.378,653.824 232.5,653.5C 232.5,657.833 232.5,662.167 232.5,666.5C 238.5,666.5 244.5,666.5 250.5,666.5C 250.613,661.482 250.947,656.482 251.5,651.5C 258.5,651.5 265.5,651.5 272.5,651.5C 272.5,655.833 272.5,660.167 272.5,664.5C 278.176,664.666 283.843,664.499 289.5,664C 290.464,659.934 290.797,655.767 290.5,651.5C 295.167,651.5 299.833,651.5 304.5,651.5C 302.645,673.463 302.145,695.463 303,717.5C 305.758,770.535 309.091,823.535 313,876.5C 315.596,915.695 323.096,953.862 335.5,991C 311.954,988.659 288.62,984.825 265.5,979.5 Z"/></g>
<g><path style="opacity:1" fill="#83794d" d="M 323.5,652.5 C 320.941,652.198 318.607,652.532 316.5,653.5C 315.957,653.44 315.624,653.107 315.5,652.5C 318.309,651.2 320.976,651.2 323.5,652.5 Z"/></g>
<g><path style="opacity:1" fill="#f8e871" d="M 323.5,652.5 C 325.5,652.5 327.5,652.5 329.5,652.5C 329.5,657.833 329.5,663.167 329.5,668.5C 335.31,669.49 341.31,669.823 347.5,669.5C 347.5,664.833 347.5,660.167 347.5,655.5C 351.714,656.702 356.048,657.369 360.5,657.5C 360.5,661.167 360.5,664.833 360.5,668.5C 366.5,668.5 372.5,668.5 378.5,668.5C 378.5,666.833 378.5,665.167 378.5,663.5C 383.332,663.169 385.332,665.503 384.5,670.5C 383.261,695.837 383.428,721.17 385,746.5C 388.766,795.486 392.433,844.486 396,893.5C 398.799,924.261 403.965,954.595 411.5,984.5C 404.794,984.448 398.128,984.948 391.5,986C 376.562,990.951 361.229,993.117 345.5,992.5C 344.385,964.141 340.552,936.141 334,908.5C 331.679,893.908 330.012,879.241 329,864.5C 326.193,810.529 324.193,756.529 323,702.5C 321.896,686.003 319.73,669.669 316.5,653.5C 318.607,652.532 320.941,652.198 323.5,652.5 Z"/></g>
<g><path style="opacity:1" fill="#8c8250" d="M 347.5,655.5 C 347.5,660.167 347.5,664.833 347.5,669.5C 341.31,669.823 335.31,669.49 329.5,668.5C 335.167,668.5 340.833,668.5 346.5,668.5C 346.182,663.968 346.515,659.634 347.5,655.5 Z"/></g>
<g><path style="opacity:0.886" fill="#211f1e" d="M 1724.5,702.5 C 1732.98,702.814 1736.48,707.147 1735,715.5C 1732.1,720.155 1727.94,721.655 1722.5,720C 1718.27,717.337 1716.77,713.504 1718,708.5C 1719.44,705.558 1721.6,703.558 1724.5,702.5 Z"/></g>
<g><path style="opacity:0.883" fill="#211f1e" d="M 1759.5,702.5 C 1767.98,702.814 1771.48,707.147 1770,715.5C 1767.1,720.155 1762.94,721.655 1757.5,720C 1752.93,717.459 1751.43,713.625 1753,708.5C 1754.44,705.558 1756.6,703.558 1759.5,702.5 Z"/></g>
<g><path style="opacity:1" fill="#e72644" d="M 348.5,725.5 C 351.833,725.5 355.167,725.5 358.5,725.5C 358.5,738.833 358.5,752.167 358.5,765.5C 353.167,766.5 347.833,767.5 342.5,768.5C 342.5,754.5 342.5,740.5 342.5,726.5C 344.735,726.795 346.735,726.461 348.5,725.5 Z"/></g>
<g><path style="opacity:1" fill="#e72744" d="M 233.5,726.5 C 239.833,726.5 246.167,726.5 252.5,726.5C 253.255,740.487 253.922,754.487 254.5,768.5C 247.5,768.5 240.5,768.5 233.5,768.5C 233.5,754.5 233.5,740.5 233.5,726.5 Z"/></g>
<g><path style="opacity:0.934" fill="#211f1e" d="M 1171.5,734.5 C 1195.05,731.519 1215.55,737.852 1233,753.5C 1230.89,757.797 1227.72,761.464 1223.5,764.5C 1205.34,748.502 1184.68,744.335 1161.5,752C 1135.65,763.854 1123.82,784.02 1126,812.5C 1132.5,843.337 1151.5,859.337 1183,860.5C 1198.48,861.011 1211.65,855.845 1222.5,845C 1223.17,844.333 1223.83,844.333 1224.5,845C 1227.33,847.833 1230.17,850.667 1233,853.5C 1233.67,854.167 1233.67,854.833 1233,855.5C 1213.27,872.808 1190.44,878.641 1164.5,873C 1134.66,865.498 1116.83,846.665 1111,816.5C 1107.42,771.292 1127.58,743.958 1171.5,734.5 Z"/></g>
<g><path style="opacity:0.946" fill="#211f1e" d="M 664.5,735.5 C 669.5,735.5 674.5,735.5 679.5,735.5C 679.333,762.835 679.5,790.169 680,817.5C 706.282,790.429 732.448,763.263 758.5,736C 764.833,735.333 771.167,735.333 777.5,736C 757.285,756.38 737.618,777.214 718.5,798.5C 739.619,823.241 760.619,848.074 781.5,873C 775.167,873.667 768.833,873.667 762.5,873C 744.324,851.993 725.991,831.16 707.5,810.5C 698.181,819.319 689.014,828.319 680,837.5C 679.5,849.495 679.333,861.495 679.5,873.5C 674.5,873.5 669.5,873.5 664.5,873.5C 664.5,827.5 664.5,781.5 664.5,735.5 Z"/></g>
<g><path style="opacity:0.919" fill="#211f1e" d="M 842.5,735.5 C 847.833,735.5 853.167,735.5 858.5,735.5C 858.5,781.5 858.5,827.5 858.5,873.5C 853.167,873.5 847.833,873.5 842.5,873.5C 842.5,827.5 842.5,781.5 842.5,735.5 Z"/></g>
<g><path style="opacity:0.946" fill="#211f1e" d="M 941.5,735.5 C 962.169,735.333 982.836,735.5 1003.5,736C 1036.85,740.195 1052.01,759.028 1049,792.5C 1045.31,809.192 1035.48,820.692 1019.5,827C 1030.29,842.079 1040.96,857.246 1051.5,872.5C 1045.86,873.663 1040.2,873.83 1034.5,873C 1024.17,858.667 1013.83,844.333 1003.5,830C 987.891,830.453 972.224,830.619 956.5,830.5C 956.5,844.833 956.5,859.167 956.5,873.5C 951.5,873.5 946.5,873.5 941.5,873.5C 941.5,827.5 941.5,781.5 941.5,735.5 Z M 956.5,749.5 C 972.503,749.333 988.503,749.5 1004.5,750C 1027.59,755.01 1037.09,769.176 1033,792.5C 1028.51,806.851 1018.68,814.684 1003.5,816C 987.837,816.5 972.17,816.667 956.5,816.5C 956.5,794.167 956.5,771.833 956.5,749.5 Z"/></g>
<g><path style="opacity:0.918" fill="#211f1e" d="M 1302.5,735.5 C 1307.83,735.5 1313.17,735.5 1318.5,735.5C 1318.5,755.833 1318.5,776.167 1318.5,796.5C 1346.5,796.5 1374.5,796.5 1402.5,796.5C 1402.5,776.167 1402.5,755.833 1402.5,735.5C 1407.83,735.5 1413.17,735.5 1418.5,735.5C 1418.5,781.5 1418.5,827.5 1418.5,873.5C 1413.17,873.5 1407.83,873.5 1402.5,873.5C 1402.5,852.5 1402.5,831.5 1402.5,810.5C 1374.5,810.5 1346.5,810.5 1318.5,810.5C 1318.5,831.5 1318.5,852.5 1318.5,873.5C 1313.17,873.5 1307.83,873.5 1302.5,873.5C 1302.5,827.5 1302.5,781.5 1302.5,735.5 Z"/></g>
<g><path style="opacity:0.952" fill="#211f1e" d="M 1501.5,735.5 C 1524.84,735.333 1548.17,735.5 1571.5,736C 1605.46,741.102 1616.3,759.602 1604,791.5C 1600.36,796.146 1595.86,799.646 1590.5,802C 1613.28,810.06 1621.45,825.893 1615,849.5C 1610.68,859.823 1603.18,866.656 1592.5,870C 1587.9,871.317 1583.23,872.317 1578.5,873C 1552.84,873.5 1527.17,873.667 1501.5,873.5C 1501.5,827.5 1501.5,781.5 1501.5,735.5 Z M 1516.5,748.5 C 1535.87,748.078 1555.21,748.578 1574.5,750C 1593.29,756.371 1598.46,768.538 1590,786.5C 1583.31,793.292 1575.14,796.792 1565.5,797C 1549.17,797.5 1532.84,797.667 1516.5,797.5C 1516.5,781.167 1516.5,764.833 1516.5,748.5 Z M 1516.5,810.5 C 1538.21,810.056 1559.88,810.556 1581.5,812C 1600.11,818.062 1605.61,830.229 1598,848.5C 1593.87,854.148 1588.37,857.648 1581.5,859C 1559.87,860.432 1538.21,860.932 1516.5,860.5C 1516.5,843.833 1516.5,827.167 1516.5,810.5 Z"/></g>
<g><path style="opacity:0.956" fill="#211f1e" d="M 1687.5,735.5 C 1692.5,735.5 1697.5,735.5 1702.5,735.5C 1702.33,764.502 1702.5,793.502 1703,822.5C 1707.22,852.389 1724.39,864.889 1754.5,860C 1772.9,855.44 1783.06,843.607 1785,824.5C 1785.5,794.835 1785.67,765.169 1785.5,735.5C 1790.5,735.5 1795.5,735.5 1800.5,735.5C 1800.67,766.168 1800.5,796.835 1800,827.5C 1795.04,859.456 1776.37,875.123 1744,874.5C 1712.07,875.235 1693.41,859.901 1688,828.5C 1687.5,797.502 1687.33,766.502 1687.5,735.5 Z"/></g>
<g><path style="opacity:0.945" fill="#211f1e" d="M 1882.5,735.5 C 1887.83,735.5 1893.17,735.5 1898.5,735.5C 1898.5,755.833 1898.5,776.167 1898.5,796.5C 1926.83,796.5 1955.17,796.5 1983.5,796.5C 1983.5,776.167 1983.5,755.833 1983.5,735.5C 1988.5,735.5 1993.5,735.5 1998.5,735.5C 1998.5,781.5 1998.5,827.5 1998.5,873.5C 1993.5,873.5 1988.5,873.5 1983.5,873.5C 1983.5,852.5 1983.5,831.5 1983.5,810.5C 1955.17,810.5 1926.83,810.5 1898.5,810.5C 1898.5,831.5 1898.5,852.5 1898.5,873.5C 1893.17,873.5 1887.83,873.5 1882.5,873.5C 1882.5,827.5 1882.5,781.5 1882.5,735.5 Z"/></g>
<g><path style="opacity:0.979" fill="#211f1e" d="M 2173.5,860.5 C 2173.5,864.833 2173.5,869.167 2173.5,873.5C 2142.83,873.5 2112.17,873.5 2081.5,873.5C 2081.5,827.5 2081.5,781.5 2081.5,735.5C 2086.5,735.5 2091.5,735.5 2096.5,735.5C 2096.5,777.167 2096.5,818.833 2096.5,860.5C 2122.17,860.5 2147.83,860.5 2173.5,860.5 Z"/></g>
<g><path style="opacity:1" fill="#e72644" d="M 362.5,826.5 C 364.482,839.792 365.149,853.459 364.5,867.5C 359.107,868.182 353.773,869.182 348.5,870.5C 348.5,856.5 348.5,842.5 348.5,828.5C 353.37,828.31 358.036,827.644 362.5,826.5 Z"/></g>
<g><path style="opacity:1" fill="#e72744" d="M 233.5,833.5 C 240.167,833.5 246.833,833.5 253.5,833.5C 253.324,847.518 253.657,861.518 254.5,875.5C 247.5,875.5 240.5,875.5 233.5,875.5C 233.5,861.5 233.5,847.5 233.5,833.5 Z"/></g>
<g><path style="opacity:1" fill="#e62544" d="M 263.5,926.5 C 263.5,943.833 263.5,961.167 263.5,978.5C 250.337,976.903 237.337,975.236 224.5,973.5C 224.333,956.83 224.5,940.163 225,923.5C 227.106,917.728 230.939,913.562 236.5,911C 250.599,907.381 259.599,912.548 263.5,926.5 Z"/></g>
<g><path style="opacity:1" fill="#f3b765" d="M 263.5,926.5 C 264.179,944.069 264.846,961.735 265.5,979.5C 264.508,979.672 263.842,979.338 263.5,978.5C 263.5,961.167 263.5,943.833 263.5,926.5 Z"/></g>
</svg>
